<?xml version="1.0" encoding="utf-8" standalone="no"?>
<!DOCTYPE svg PUBLIC "-//W3C//DTD SVG 1.1//EN"
  "http://www.w3.org/Graphics/SVG/1.1/DTD/svg11.dtd">
<!-- Created with matplotlib (http://matplotlib.org/) -->
<svg height="180pt" version="1.1" viewBox="0 0 1008 180" width="1008pt" xmlns="http://www.w3.org/2000/svg" xmlns:xlink="http://www.w3.org/1999/xlink">
 <defs>
  <style type="text/css">
*{stroke-linecap:butt;stroke-linejoin:round;}
  </style>
 </defs>
 <g id="figure_1">
  <g id="patch_1">
   <path d="M 0 180 
L 1008 180 
L 1008 0 
L 0 0 
z
" style="fill:#ffffff;"/>
  </g>
  <g id="axes_1">
   <g id="line2d_1">
    <path clip-path="url(#p07620e676e)" d="M 45.818182 90.001539 
L 53.886453 67.6836 
L 58.496894 55.585705 
L 61.954725 47.058282 
L 65.412556 39.132175 
L 68.870386 31.918372 
L 71.175607 27.555231 
L 73.480827 23.580969 
L 75.786048 20.020335 
L 78.091268 16.895504 
L 80.396489 14.225935 
L 82.701709 12.028253 
L 85.00693 10.316142 
L 87.31215 9.100266 
L 88.46476 8.680904 
L 89.61737 8.388196 
L 90.769981 8.222598 
L 91.922591 8.184367 
L 93.075201 8.273563 
L 94.227811 8.490048 
L 95.380422 8.833483 
L 96.533032 9.303334 
L 98.838252 10.619163 
L 101.143473 12.429338 
L 103.448693 14.722588 
L 105.753914 17.484632 
L 108.059134 20.698269 
L 110.364355 24.343486 
L 112.669575 28.397584 
L 114.974795 32.835315 
L 118.432626 40.150161 
L 121.890457 48.163056 
L 125.348287 56.761799 
L 129.958728 68.929027 
L 136.87439 88.064201 
L 144.942661 110.449348 
L 149.553102 122.650108 
L 153.010933 131.283707 
L 156.468764 139.339248 
L 159.926594 146.703934 
L 162.231815 151.178546 
L 164.537035 155.272184 
L 166.842256 158.959354 
L 169.147476 162.217095 
L 171.452697 165.025119 
L 173.757917 167.365941 
L 176.063137 169.224981 
L 178.368358 170.590664 
L 179.520968 171.085717 
L 180.673578 171.454485 
L 181.826189 171.696393 
L 182.978799 171.811064 
L 184.131409 171.79832 
L 185.284019 171.658181 
L 186.43663 171.390865 
L 187.58924 170.996788 
L 188.74185 170.476564 
L 191.04707 169.061111 
L 193.352291 167.153321 
L 195.657511 164.765075 
L 197.962732 161.911245 
L 200.267952 158.609603 
L 202.573173 154.88071 
L 204.878393 150.747787 
L 207.183614 146.236572 
L 210.641444 138.822506 
L 214.099275 130.72482 
L 217.557106 122.056902 
L 222.167547 109.823371 
L 229.083208 90.647372 
L 237.151479 68.305638 
L 241.76192 56.172698 
L 245.219751 47.609348 
L 248.677582 39.639599 
L 252.135412 32.375048 
L 254.440633 27.974475 
L 256.745853 23.96017 
L 259.051074 20.357132 
L 261.356294 17.1878 
L 263.661515 14.471909 
L 265.966735 12.226372 
L 268.271956 10.465175 
L 270.577176 9.199283 
L 271.729786 8.754663 
L 272.882397 8.436581 
L 274.035007 8.245534 
L 275.187617 8.181818 
L 275.187617 8.181818 
" style="fill:none;stroke:#000000;stroke-linecap:square;stroke-width:1.5;"/>
   </g>
   <g id="line2d_2">
    <path clip-path="url(#p07620e676e)" d="M 275.187617 8.181818 
L 277.189792 8.181818 
L 277.189792 8.374026 
L 279.326108 8.374026 
L 279.326108 9.001969 
L 281.60555 9.001969 
L 281.60555 10.149607 
L 284.037708 10.149607 
L 284.037708 11.910077 
L 286.632815 11.910077 
L 286.632815 14.385045 
L 289.401786 14.385045 
L 289.401786 17.683253 
L 292.35627 17.683253 
L 292.35627 21.917967 
L 295.508696 21.917967 
L 295.508696 27.202938 
L 298.872326 27.202938 
L 298.872326 33.646429 
L 302.46131 33.646429 
L 302.46131 41.342799 
L 306.290745 41.342799 
L 306.290745 50.361084 
L 310.376742 50.361084 
L 310.376742 60.730054 
L 314.736489 60.730054 
L 314.736489 72.419332 
L 319.388326 72.419332 
L 319.388326 85.316461 
L 324.351824 85.316461 
L 324.351824 99.20034 
L 329.647861 99.20034 
L 329.647861 113.712341 
L 335.298718 113.712341 
L 335.298718 128.327802 
L 341.328167 128.327802 
L 341.328167 142.332528 
L 347.761572 142.332528 
L 347.761572 154.811532 
L 354.625996 154.811532 
L 354.625996 164.660305 
L 361.950317 164.660305 
L 361.950317 170.632141 
L 369.765347 170.632141 
L 369.765347 171.437414 
L 378.103962 171.437414 
L 378.103962 165.910648 
L 387.001241 165.910648 
L 387.001241 153.256104 
L 396.494612 153.256104 
L 396.494612 133.368771 
L 406.624012 133.368771 
L 406.624012 107.201166 
L 417.432053 107.201166 
L 417.432053 77.104205 
L 428.964202 77.104205 
L 428.964202 47.014456 
L 441.268973 47.014456 
L 441.268973 22.301886 
L 454.398128 22.301886 
L 454.398128 9.060976 
L 468.406899 9.060976 
L 468.406899 12.675341 
L 483.354218 12.675341 
L 483.354218 35.681578 
L 499.302966 35.681578 
L 499.302966 75.360759 
L 516.320234 75.360759 
L 516.320234 122.073803 
L 534.47761 122.073803 
L 534.47761 159.91398 
L 553.85148 159.91398 
L 553.85148 171.26069 
L 574.523344 171.26069 
L 574.523344 145.523102 
L 596.580164 145.523102 
L 596.580164 89.230152 
L 620.114729 89.230152 
L 620.114729 30.442979 
L 645.226042 30.442979 
L 645.226042 8.62684 
L 672.019743 8.62684 
L 672.019743 47.305815 
L 700.608545 47.305815 
L 700.608545 124.105027 
L 731.112717 124.105027 
L 731.112717 171.441789 
L 763.660581 171.441789 
L 763.660581 132.952547 
L 798.389059 132.952547 
L 798.389059 41.368725 
L 835.444248 41.368725 
L 835.444248 12.71779 
L 874.982029 12.71779 
L 874.982029 99.599883 
L 917.168729 99.599883 
L 917.168729 171.818182 
L 962.181818 171.818182 
L 962.181818 93.122101 
" style="fill:none;stroke:#000000;stroke-linecap:square;stroke-width:1.5;"/>
   </g>
  </g>
 </g>
 <defs>
  <clipPath id="p07620e676e">
   <rect height="180" width="1008" x="0" y="0"/>
  </clipPath>
 </defs>
</svg>
