<?xml version="1.0" encoding="utf-8" standalone="no"?>
<!DOCTYPE svg PUBLIC "-//W3C//DTD SVG 1.1//EN"
  "http://www.w3.org/Graphics/SVG/1.1/DTD/svg11.dtd">
<!-- Created with matplotlib (http://matplotlib.org/) -->
<svg height="180pt" version="1.1" viewBox="0 0 1008 180" width="1008pt" xmlns="http://www.w3.org/2000/svg" xmlns:xlink="http://www.w3.org/1999/xlink">
 <defs>
  <style type="text/css">
*{stroke-linecap:butt;stroke-linejoin:round;}
  </style>
 </defs>
 <g id="figure_1">
  <g id="patch_1">
   <path d="M 0 180 
L 1008 180 
L 1008 0 
L 0 0 
z
" style="fill:#ffffff;"/>
  </g>
  <g id="axes_1">
   <g id="line2d_1">
    <path clip-path="url(#p86e08206ea)" d="M 45.818182 90.005098 
L 54.344107 70.809643 
L 60.028056 58.543569 
L 64.291019 49.841494 
L 68.553981 41.701814 
L 71.395956 36.64446 
L 74.237931 31.919404 
L 77.079906 27.556073 
L 79.921881 23.581638 
L 82.763856 20.02085 
L 85.605831 16.895883 
L 88.447806 14.226198 
L 91.289781 12.02842 
L 94.131755 10.316235 
L 95.552743 9.645692 
L 96.97373 9.100306 
L 98.394718 8.680926 
L 99.815705 8.388205 
L 101.236693 8.2226 
L 102.65768 8.184367 
L 104.078668 8.273567 
L 105.499655 8.490061 
L 106.920643 8.833511 
L 108.34163 9.303383 
L 109.762617 9.898945 
L 112.604592 11.463233 
L 115.446567 13.516634 
L 118.288542 16.046361 
L 121.130517 19.03666 
L 123.972492 22.468909 
L 126.814467 26.321734 
L 129.656442 30.571143 
L 132.498417 35.190671 
L 135.340392 40.151552 
L 139.603354 48.164795 
L 143.866317 56.763912 
L 148.129279 65.828491 
L 153.813229 78.418552 
L 170.865078 116.637367 
L 175.128041 125.589996 
L 179.391003 134.044343 
L 183.653965 141.882027 
L 186.49594 146.709959 
L 189.337915 151.184767 
L 192.17989 155.278582 
L 195.021865 158.965913 
L 197.86384 162.223796 
L 200.705815 165.031942 
L 203.54779 167.372865 
L 206.389765 169.231987 
L 209.23174 170.597729 
L 210.652727 171.092804 
L 212.073715 171.461587 
L 213.494702 171.703506 
L 214.915689 171.818182 
L 216.336677 171.805437 
L 217.757664 171.665292 
L 219.178652 171.397964 
L 220.599639 171.00387 
L 222.020627 170.483623 
L 223.441614 169.838035 
L 226.283589 168.175046 
L 229.125564 166.025261 
L 231.967539 163.402066 
L 234.809514 160.321797 
L 237.651489 156.803637 
L 240.493464 152.869494 
L 243.335439 148.543869 
L 246.177414 143.853698 
L 249.019388 138.828189 
L 253.282351 130.730151 
L 257.545313 122.061855 
L 263.229263 109.827792 
L 270.3342 93.878857 
L 281.7021 68.308253 
L 287.38605 56.174786 
L 291.649012 47.611063 
L 295.911975 39.640968 
L 298.75395 34.712865 
L 301.595924 30.129091 
L 304.437899 25.91819 
L 307.279874 22.106384 
L 310.121849 18.717413 
L 312.963824 15.77238 
L 315.805799 13.289625 
L 318.647774 11.284609 
L 321.489749 9.769819 
L 322.910736 9.199327 
L 324.331724 8.754688 
L 325.752711 8.436592 
L 327.173699 8.245536 
L 328.594686 8.181818 
L 328.594686 8.181818 
" style="fill:none;stroke:#000000;stroke-linecap:square;stroke-width:1.5;"/>
   </g>
   <g id="line2d_2">
    <path clip-path="url(#p86e08206ea)" d="M 328.594686 8.181818 
L 330.842002 8.181818 
L 330.842002 8.341159 
L 333.226399 8.341159 
L 333.226399 8.857939 
L 335.756237 8.857939 
L 335.756237 9.795143 
L 338.440388 9.795143 
L 338.440388 11.22218 
L 341.288266 11.22218 
L 341.288266 13.214565 
L 344.309857 13.214565 
L 344.309857 15.853176 
L 347.515756 15.853176 
L 347.515756 19.222939 
L 350.917207 19.222939 
L 350.917207 23.410764 
L 354.526137 23.410764 
L 354.526137 28.502492 
L 358.355202 28.502492 
L 358.355202 34.578616 
L 362.417829 34.578616 
L 362.417829 41.708494 
L 366.728267 41.708494 
L 366.728267 49.942744 
L 371.301629 49.942744 
L 371.301629 59.303564 
L 376.153954 59.303564 
L 376.153954 69.772754 
L 381.302258 69.772754 
L 381.302258 81.277375 
L 386.764594 81.277375 
L 386.764594 93.673228 
L 392.560119 93.673228 
L 392.560119 106.726743 
L 398.709155 106.726743 
L 398.709155 120.096451 
L 405.233265 120.096451 
L 405.233265 133.316111 
L 412.155329 133.316111 
L 412.155329 145.782634 
L 419.49962 145.782634 
L 419.49962 156.75338 
L 427.291894 156.75338 
L 427.291894 165.358967 
L 435.559475 165.358967 
L 435.559475 170.639208 
L 444.331356 170.639208 
L 444.331356 171.610828 
L 453.638298 171.610828 
L 453.638298 167.375294 
L 463.512939 167.375294 
L 463.512939 157.272462 
L 473.989907 157.272462 
L 473.989907 141.079151 
L 485.105942 141.079151 
L 485.105942 119.23968 
L 496.900024 119.23968 
L 496.900024 93.096384 
L 509.413515 93.096384 
L 509.413515 65.062344 
L 522.690294 65.062344 
L 522.690294 38.649197 
L 536.776922 38.649197 
L 536.776922 18.238609 
L 551.722796 18.238609 
L 551.722796 8.483576 
L 567.580328 8.483576 
L 567.580328 13.270319 
L 584.405127 13.270319 
L 584.405127 34.292906 
L 602.256194 34.292906 
L 602.256194 69.510904 
L 621.196128 69.510904 
L 621.196128 112.057191 
L 641.291347 112.057191 
L 641.291347 150.441245 
L 662.61232 150.441245 
L 662.61232 170.938721 
L 685.233816 170.938721 
L 685.233816 162.555365 
L 709.235162 162.555365 
L 709.235162 123.628283 
L 734.700526 123.628283 
L 734.700526 67.092512 
L 761.719209 67.092512 
L 761.719209 19.679632 
L 790.385959 19.679632 
L 790.385959 10.924759 
L 820.801304 10.924759 
L 820.801304 53.213917 
L 853.071903 53.213917 
L 853.071903 124.110069 
L 887.310923 124.110069 
L 887.310923 170.357634 
L 923.63843 170.357634 
L 923.63843 145.881032 
L 962.181818 145.881032 
L 962.181818 64.357993 
" style="fill:none;stroke:#000000;stroke-linecap:square;stroke-width:1.5;"/>
   </g>
  </g>
 </g>
 <defs>
  <clipPath id="p86e08206ea">
   <rect height="180" width="1008" x="0" y="0"/>
  </clipPath>
 </defs>
</svg>
