<?xml version="1.0" encoding="UTF-8" standalone="no"?>
<!-- Created with matplotlib (http://matplotlib.org/) -->

<svg
   xmlns:dc="http://purl.org/dc/elements/1.1/"
   xmlns:cc="http://creativecommons.org/ns#"
   xmlns:rdf="http://www.w3.org/1999/02/22-rdf-syntax-ns#"
   xmlns:svg="http://www.w3.org/2000/svg"
   xmlns="http://www.w3.org/2000/svg"
   xmlns:sodipodi="http://sodipodi.sourceforge.net/DTD/sodipodi-0.dtd"
   xmlns:inkscape="http://www.inkscape.org/namespaces/inkscape"
   sodipodi:docname="curveBad2.svg"
   inkscape:version="0.91 r13725"
   id="svg2"
   width="297mm"
   viewBox="0 0 841.88976 595.27559"
   version="1.1"
   height="210mm">
  <sodipodi:namedview
     inkscape:current-layer="svg2"
     inkscape:window-maximized="0"
     inkscape:window-y="0"
     inkscape:window-x="0"
     inkscape:cy="82.133547"
     inkscape:cx="524.43276"
     inkscape:zoom="1.2634921"
     showgrid="false"
     id="namedview24"
     inkscape:window-height="1006"
     inkscape:window-width="1680"
     inkscape:pageshadow="2"
     inkscape:pageopacity="0"
     guidetolerance="10"
     gridtolerance="10"
     objecttolerance="10"
     borderopacity="1"
     bordercolor="#666666"
     pagecolor="#ffffff"
     units="mm" />
  <metadata
     id="metadata26">
    <rdf:RDF>
      <cc:Work
         rdf:about="">
        <dc:format>image/svg+xml</dc:format>
        <dc:type
           rdf:resource="http://purl.org/dc/dcmitype/StillImage" />
        <dc:title></dc:title>
      </cc:Work>
    </rdf:RDF>
  </metadata>
  <defs
     style="stroke-linecap:butt;stroke-linejoin:round"
     id="defs4">
    <style
       type="text/css"
       id="style6">
*{stroke-linecap:butt;stroke-linejoin:round;}
  </style>
    <style
       type="text/css"
       id="style4413">
*{stroke-linecap:butt;stroke-linejoin:round;}
  </style>
  </defs>
  <defs
     id="defs19">
    <clipPath
       style="stroke-linecap:butt;stroke-linejoin:round"
       id="p94f9811776">
      <rect
         style="stroke-linecap:butt;stroke-linejoin:round"
         height="180"
         width="1008"
         x="0"
         y="0"
         id="rect22" />
    </clipPath>
  </defs>
  <path
     style="fill:none;stroke:#000000;stroke-width:1.03118241;stroke-linecap:butt;stroke-linejoin:round;stroke-opacity:0.28193831"
     d="M 314.93118,319.72884 C 274.31381,279.27928 262.65697,218.0612 285.56658,165.51515 308.47619,112.9691 361.26395,79.848294 418.54355,82.080934 c 57.2796,2.23265 107.32915,39.361856 126.07918,93.531716 18.75003,54.16986 2.36348,114.29486 -41.27916,151.46014"
     id="path3444" />
  <g
     transform="matrix(1.0001849,0,0,0.74114882,476.5068,562.27968)"
     style="stroke-linecap:butt;stroke-linejoin:round"
     id="figure_1">
    <g
       style="stroke-linecap:butt;stroke-linejoin:round"
       id="patch_1" />
    <g
       style="stroke-linecap:butt;stroke-linejoin:round"
       id="axes_1">
      <g
         style="stroke-linecap:butt;stroke-linejoin:round"
         id="line2d_1" />
      <g
         style="stroke-linecap:butt;stroke-linejoin:round"
         id="line2d_2">
        <path
           inkscape:connector-curvature="0"
           d="m -247.4425,-115.33935 1.74714,0 0,0.0929 1.86419,0 0,0.30347 1.98908,0 0,0.55462 2.12235,0 0,0.85079 2.26454,0 0,1.19609 2.41626,0 0,1.59393 2.57813,0 0,2.04653 2.75087,0 0,2.55408 2.93517,0 0,3.11396 3.13181,0 0,3.719448 3.34164,0 0,4.35828 3.56553,0 0,5.01105 3.8044,0 0,5.64911 4.05927,0 0,6.232831 4.33123,0 0,6.70971 4.62143,0 0,7.013257 4.93104,0 0,7.063253 5.26143,0 0,6.768108 5.61389,0 0,6.030763 5.99004,0 0,4.759644 6.39135,0 0,2.886029 6.81954,0 0,0.389165 7.27642,0 0,-2.670934 7.76394,0 0,-6.115601 8.2841,0 0,-9.611009 8.83909,0 0,-12.646091 9.4313,0 0,-14.545045 10.06319,0 0,-14.54157 10.73736,0 0,-11.942908 11.456751,0 0,-6.39898 12.224315,0 0,1.74673 13.043311,0 0,11.11829 13.917187,0 0,19.175878 14.849584,0 0,22.575146 15.844472,0 0,18.287132 16.9060046,0 0,5.483558 18.0386564,0 0,-12.438281 19.247199,0 0,-27.204857 20.536712,0 0,-28.410246 21.912607,0 0,-10.54315 23.38069,0 0,18.692498 24.947141,0 0,37.11498 26.61851,0 0,22.876576 28.40188,0 0,-18.600808 30.30474,0 0,-44.259988 32.33505,0 0,-13.846218 34.50143,0 0,41.987762 36.81291,0 0,34.901152 39.27927,0 0,-38.031684 m -799.63626,-1.508082 7.04052,-10.78566 4.02316,-5.84658 3.01737,-4.12108 3.01737,-3.830458 3.01737,-3.48625 2.01158,-2.10858 2.01157,-1.92066 2.01158,-1.72075 2.01158,-1.51016 2.01158,-1.29012 2.01158,-1.06208 2.01159,-0.82741 2.01156,-0.58761 1.0058,-0.20267 1.00579,-0.14145 1.00579,-0.08 1.0058,-0.0185 1.00578,0.0432 1.00579,0.10463 1.00579,0.16598 1.00579,0.22706 2.01158,0.6359 2.01158,0.87481 2.01158,1.10827 2.01157,1.33482 2.01158,1.55306 2.01159,1.76164 2.01157,1.95924 2.0116,2.14463 3.01736,3.535068 3.01736,3.87241 3.01737,4.15554 4.02316,5.88009 6.03473,9.24751 7.04052,10.818141 4.02318,5.8963 3.01736,4.172383 3.01737,3.893025 3.01736,3.55915 2.01158,2.162464 2.01158,1.97834 2.01159,1.78191 2.01157,1.574378 2.01158,1.357045 2.01159,1.131254 2.01156,0.898424 2.01159,0.659996 1.00578,0.239249 1.0058,0.178212 1.00578,0.116909 1.00579,0.05542 1.00579,-0.0062 1.0058,-0.06773 1.00578,-0.129188 1.0058,-0.190444 1.00579,-0.251413 2.01158,-0.684048 2.01157,-0.921984 2.01157,-1.154177 2.01159,-1.379178 2.01157,-1.595593 2.01158,-1.802072 2.01158,-1.997329 2.01157,-2.180151 3.01738,-3.583014 3.01737,-3.913394 3.01737,-4.188966 4.02317,-5.912136 6.03473,-9.267245 7.04052,-10.797168 4.02315,-5.86352 3.01738,-4.13843 3.01737,-3.851568 3.01735,-3.51076 2.01158,-2.12667 2.0116,-1.94001 2.01157,-1.74126 2.01158,-1.53164 2.01158,-1.31251 2.01157,-1.08522 2.01159,-0.85114 2.01158,-0.61177 1.00579,-0.21488 1.00578,-0.15372 1.0058,-0.0924 1.00578,-0.0308 0,0"
           style="fill:none;stroke:#000000;stroke-width:0.97409165;stroke-linecap:square;stroke-linejoin:round"
           id="path4424" />
      </g>
    </g>
  </g>
  <g
     style="stroke-linecap:butt;stroke-linejoin:round"
     id="g4529">
    <g
       style="stroke-linecap:butt;stroke-linejoin:round"
       id="g4551" />
    <g
       style="stroke-linecap:butt;stroke-linejoin:round"
       id="g4553">
      <g
         style="stroke-linecap:butt;stroke-linejoin:round"
         id="g4555" />
      <g
         style="stroke-linecap:butt;stroke-linejoin:round"
         id="g4557">
        <path
           d="M259.018497557 153.107793444C259.018497557 153.107793444 259.626509854 151.783004099 259.626509854 151.783004099C259.626509854 151.783004099 259.68908301 151.81172206 259.68908301 151.81172206C259.68908301 151.81172206 260.337829215 150.398178184 260.337829215 150.398178184C260.337829215 150.398178184 260.542232614 150.491989159 260.542232614 150.491989159C260.542232614 150.491989159 261.23444108 148.983745978 261.23444108 148.983745978C261.23444108 148.983745978 261.608007539 149.155194369 261.608007539 149.155194369C261.608007539 149.155194369 262.865937611 146.582498734 262.865937611 146.582498734C262.865937611 146.582498734 263.428518961 146.86721361 263.428518961 146.86721361C263.428518961 146.86721361 264.281647655 145.181476988 264.281647655 145.181476988C264.281647655 145.181476988 265.072557195 145.581745699 265.072557195 145.581745699C265.072557195 145.581745699 265.982843936 143.783067836 265.982843936 143.783067836C265.982843936 143.783067836 267.036823521 144.316472767 267.036823521 144.316472767C267.036823521 144.316472767 268.538673188 141.560992849 268.538673188 141.560992849C268.538673188 141.560992849 269.864845029 142.296943335 269.864845029 142.296943335C269.864845029 142.296943335 270.978491433 140.290169062 270.978491433 140.290169062C270.978491433 140.290169062 272.633560733 141.208639066 272.633560733 141.208639066C272.633560733 141.208639066 274.298876632 138.35595149 274.298876632 138.35595149C274.298876632 138.35595149 276.272745737 139.551628107 276.272745737 139.551628107C276.272745737 139.551628107 277.626509498 137.316782645 277.626509498 137.316782645C277.626509498 137.316782645 279.984185076 138.744951084 279.984185076 138.744951084C279.984185076 138.744951084 281.832326551 135.834551418 281.832326551 135.834551418C281.832326551 135.834551418 284.529579516 137.611445941 284.529579516 137.611445941C284.529579516 137.611445941 286.166084703 135.127298227 286.166084703 135.127298227C286.166084703 135.127298227 289.26732406 137.170330638 289.26732406 137.170330638C289.26732406 137.170330638 291.314957588 134.246647224 291.314957588 134.246647224C291.314957588 134.246647224 294.721652541 136.680146461 294.721652541 136.680146461C294.721652541 136.680146461 296.851081586 133.7487362 296.851081586 133.7487362C296.851081586 133.7487362 300.506126755 136.573185495 300.506126755 136.573185495C300.506126755 136.573185495 302.71569006 133.713848032 302.71569006 133.713848032C302.71569006 133.713848032 306.650385725 136.754398253 306.650385725 136.754398253C306.650385725 136.754398253 309.015547646 133.868032178 309.015547646 133.868032178C309.015547646 133.868032178 313.006202263 137.198100635 313.006202263 137.198100635C313.006202263 137.198100635 315.485586076 134.32388221 315.485586076 134.32388221C315.485586076 134.32388221 319.376541388 137.825553723 319.376541388 137.825553723C319.376541388 137.825553723 321.991716578 134.962629728 321.991716578 134.962629728C321.991716578 134.962629728 325.592473432 138.454573669 325.592473432 138.454573669C325.592473432 138.454573669 328.373117892 135.597444178 328.373117892 135.597444178C328.373117892 135.597444178 331.463757753 138.826037608 331.463757753 138.826037608C331.463757753 138.826037608 334.450609461 135.963885783 334.450609461 135.963885783C334.450609461 135.963885783 336.793694901 138.600650464 336.793694901 138.600650464C336.793694901 138.600650464 340.04132565 135.717501895 340.04132565 135.717501895C340.04132565 135.717501895 341.401946228 137.367779256 341.401946228 137.367779256C341.401946228 137.367779256 344.981451756 134.443250623 344.981451756 134.443250623C344.981451756 134.443250623 345.156579867 134.672405875 345.156579867 134.672405875C345.156579867 134.672405875 349.157202937 131.683688319 349.157202937 131.683688319C349.157202937 131.683688319 348.014092544 130.067670836 348.014092544 130.067670836C348.014092544 130.067670836 352.542982132 126.992904927 352.542982132 126.992904927C352.542982132 126.992904927 350.063797052 123.198762078 350.063797052 123.198762078C350.063797052 123.198762078 355.242662612 120.022024159 355.242662612 120.022024159C355.242662612 120.022024159 351.568882884 113.919776338 351.568882884 113.919776338C351.568882884 113.919776338 357.058173554 110.977805594 357.058173554 110.977805594C357.058173554 110.977805594 352.829172361 102.614079744 352.829172361 102.614079744C352.829172361 102.614079744 359.725602702 99.3268585346 359.725602702 99.3268585346C359.725602702 99.3268585346 355.220176589 89.5341427173 355.220176589 89.5341427173C355.220176589 89.5341427173 363.326136966 86.2758708484 363.326136966 86.2758708484C363.326136966 86.2758708484 359.558754399 76.1789726643 359.558754399 76.1789726643C359.558754399 76.1789726643 369.142071919 72.9854593484 369.142071919 72.9854593484C369.142071919 72.9854593484 366.673212743 64.4857967922 366.673212743 64.4857967922C366.673212743 64.4857967922 377.679096661 61.6270585128 377.679096661 61.6270585128C377.679096661 61.6270585128 376.700703191 56.9867639176 376.700703191 56.9867639176C376.700703191 56.9867639176 388.877857481 54.7499693167 388.877857481 54.7499693167C388.877857481 54.7499693167 389.048776906 56.0331461569 389.048776906 56.0331461569C389.048776906 56.0331461569 401.956946554 54.6683563167 401.956946554 54.6683563167C401.956946554 54.6683563167 402.422488613 62.8950064211 402.422488613 62.8950064211C402.422488613 62.8950064211 415.510374803 62.5625302453 415.510374803 62.5625302453C415.510374803 62.5625302453 415.228589281 76.771052799 415.228589281 76.771052799C415.228589281 76.771052799 427.991522243 77.5205421095 427.991522243 77.5205421095C427.991522243 77.5205421095 426.382525975 94.1735234158 426.382525975 94.1735234158C426.382525975 94.1735234158 438.153416979 95.9485558182 438.153416979 95.9485558182C438.153416979 95.9485558182 435.323754966 109.202543872 435.323754966 109.202543872C435.323754966 109.202543872 447.159089662 112.209617672 447.159089662 112.209617672C447.159089662 112.209617672 446.013687087 116.108757609 446.013687087 116.108757609C446.013687087 116.108757609 457.047148073 120.235069206 457.047148073 120.235069206C457.047148073 120.235069206 460.618772339 111.737031911 460.618772339 111.737031911C460.618772339 111.737031911 472.972785544 117.970759515 472.972785544 117.970759515C472.972785544 117.970759515 482.799797794 100.36609666 482.799797794 100.36609666C482.799797794 100.36609666 497.104913534 109.84945643 497.104913534 109.84945643C497.104913534 109.84945643 509.959072449 93.1735731267 509.959072449 93.1735731267C509.959072449 93.1735731267 525.575301562 106.651674255 525.575301562 106.651674255C525.575301562 106.651674255 531.000061402 101.028123121 531.000061402 101.028123121C531.000061402 101.028123121 546.771073682 118.870510713 546.771073682 118.870510713C546.771073682 118.870510713 535.783800068 127.307859312 535.783800068 127.307859312C535.783800068 127.307859312 548.398999037 146.643815331 548.398999037 146.643815331C548.398999037 146.643815331 524.321123251 159.941970875 524.321123251 159.941970875C524.321123251 159.941970875 532.661249403 178.476418961 532.661249403 178.476418961C532.661249403 178.476418961 516.748939428 184.327373076 516.748939428 184.327373076C516.748939428 184.327373076 521.396155923 201.838281305 521.396155923 201.838281305C521.396155923 201.838281305 535.001149782 199.616915396 535.001149782 199.616915396C535.001149782 199.616915396 536.896210785 221.904471628 536.896210785 221.904471628C536.896210785 221.904471628 569.686741904 222.746977386 569.686741904 222.746977386C569.686741904 222.746977386 566.45418578 252.726742195 566.45418578 252.726742195C566.45418578 252.726742195 576.488616569 254.873648555 576.488616569 254.873648555C576.488616569 254.873648555 566.329083724 287.142769073 566.329083724 287.142769073C566.329083724 287.142769073 537.610475809 275.162150799 537.610475809 275.162150799C537.610475809 275.162150799 522.766133158 301.09780971 522.766133158 301.09780971C522.766133158 301.09780971 501.694137895 286.098088053 501.694137895 286.098088053C501.694137895 286.098088053 483.921376069 305.130107561 483.921376069 305.130107561C483.921376069 305.130107561 502.602430155 326.235469751 502.602430155 326.235469751M314.931586071 319.728447552C314.931586071 319.728447552 304.908179362 320.82236697 304.908179362 320.82236697C304.908179362 320.82236697 299.441055062 321.211228321 299.441055062 321.211228321C299.441055062 321.211228321 295.134513551 320.901714094 295.134513551 320.901714094C295.134513551 320.901714094 291.34243665 320.774662193 291.34243665 320.774662193C291.34243665 320.774662193 287.277804412 319.847624603 287.277804412 319.847624603C287.277804412 319.847624603 285.016578538 319.466267541 285.016578538 319.466267541C285.016578538 319.466267541 282.86589132 319.000193993 282.86589132 319.000193993C282.86589132 319.000193993 280.286762776 317.666968683 280.286762776 317.666968683C280.286762776 317.666968683 278.403555655 316.943971484 278.403555655 316.943971484C278.403555655 316.943971484 276.653439434 316.12674308 276.653439434 316.12674308C276.653439434 316.12674308 274.459248991 314.332656934 274.459248991 314.332656934C274.459248991 314.332656934 273.02837214 313.262494324 273.02837214 313.262494324C273.02837214 313.262494324 271.746324698 312.095207343 271.746324698 312.095207343C271.746324698 312.095207343 271.161848658 311.474630199 271.161848658 311.474630199C271.161848658 311.474630199 270.036504377 309.894141321 270.036504377 309.894141321C270.036504377 309.894141321 269.553733698 309.205227385 269.553733698 309.205227385C269.553733698 309.205227385 269.110034795 308.492845407 269.110034795 308.492845407C269.110034795 308.492845407 268.705547629 307.75694055 268.705547629 307.75694055C268.705547629 307.75694055 268.340087761 306.997594353 268.340087761 306.997594353C268.340087761 306.997594353 268.013608657 306.214844489 268.013608657 306.214844489C268.013608657 306.214844489 267.725938761 305.408793956 267.725938761 305.408793956C267.725938761 305.408793956 266.788290078 302.772262432 266.788290078 302.772262432C266.788290078 302.772262432 266.546925531 300.989373736 266.546925531 300.989373736C266.546925531 300.989373736 266.457132433 299.12304937 266.457132433 299.12304937C266.457132433 299.12304937 266.111561401 296.290738443 266.111561401 296.290738443C266.111561401 296.290738443 266.386095415 294.274302412 266.386095415 294.274302412C266.386095415 294.274302412 266.798735417 292.188428082 266.798735417 292.188428082C266.798735417 292.188428082 267.031752553 289.273783662 267.031752553 289.273783662C267.031752553 289.273783662 267.779992451 287.086775085 267.779992451 287.086775085C267.779992451 287.086775085 268.864778514 283.094345411 268.864778514 283.094345411C268.864778514 283.094345411 270.557313134 279.672527486 270.557313134 279.672527486C270.557313134 279.672527486 272.291220275 275.756413669 272.291220275 275.756413669C272.291220275 275.756413669 275.213788069 271.096445489 275.213788069 271.096445489C275.213788069 271.096445489 280.007590583 263.930044503 280.007590583 263.930044503C280.007590583 263.930044503 286.019904682 256.060708983 286.019904682 256.060708983C286.019904682 256.060708983 289.487926486 252.01975871 289.487926486 252.01975871C289.487926486 252.01975871 291.882049118 248.831162478 291.882049118 248.831162478C291.882049118 248.831162478 294.303436887 246.308614806 294.303436887 246.308614806C294.303436887 246.308614806 296.368667269 243.303665185 296.368667269 243.303665185C296.368667269 243.303665185 297.793271831 242.116371581 297.793271831 242.116371581C297.793271831 242.116371581 298.954874106 240.214545679 298.954874106 240.214545679C298.954874106 240.214545679 299.972991209 238.337301806 299.972991209 238.337301806C299.972991209 238.337301806 301.028992843 237.421821506 301.028992843 237.421821506C301.028992843 237.421821506 301.803524746 235.625103588 301.803524746 235.625103588C301.803524746 235.625103588 302.412194957 233.850544144 302.412194957 233.850544144C302.412194957 233.850544144 303.01145311 233.134115188 303.01145311 233.134115188C303.01145311 233.134115188 303.337526417 231.416680882 303.337526417 231.416680882C303.337526417 231.416680882 303.433618981 230.564420138 303.433618981 230.564420138C303.433618981 230.564420138 303.484683118 229.716476931 303.484683118 229.716476931C303.484683118 229.716476931 303.581556105 229.949959954 303.581556105 229.949959954C303.581556105 229.949959954 303.573059988 229.109857487 303.573059988 229.109857487C303.573059988 229.109857487 303.518976382 228.272448688 303.518976382 228.272448688C303.518976382 228.272448688 303.419371379 227.437721296 303.419371379 227.437721296C303.419371379 227.437721296 303.274299722 226.605697148 303.274299722 226.605697148C303.274299722 226.605697148 303.083908886 225.776334101 303.083908886 225.776334101C303.083908886 225.776334101 302.894778186 226.015109891 302.894778186 226.015109891C302.894778186 226.015109891 302.351000934 224.348395865 302.351000934 224.348395865C302.351000934 224.348395865 301.630930655 222.68557224 301.630930655 222.68557224C301.630930655 222.68557224 300.738822308 221.026536977 300.738822308 221.026536977C300.738822308 221.026536977 299.744264412 220.325848833 299.744264412 220.325848833C299.744264412 220.325848833 298.587169921 218.62995741 298.587169921 218.62995741C298.587169921 218.62995741 297.277069992 216.931753041 297.277069992 216.931753041C297.277069992 216.931753041 295.85137391 216.041426641 295.85137391 216.041426641C295.85137391 216.041426641 294.32546776 214.281094234 294.32546776 214.281094234C294.32546776 214.281094234 291.77900541 212.279921753 291.77900541 212.279921753C291.77900541 212.279921753 289.115377095 209.513357564 289.115377095 209.513357564C289.115377095 209.513357564 286.216482166 207.156773662 286.216482166 207.156773662C286.216482166 207.156773662 282.294923582 203.272752799 282.294923582 203.272752799C282.294923582 203.272752799 276.250944609 197.437430457 276.250944609 197.437430457C276.250944609 197.437430457 269.528520139 190.074857215 269.528520139 190.074857215C269.528520139 190.074857215 266.1324295 185.488031789 266.1324295 185.488031789C266.1324295 185.488031789 263.75097593 182.314286789 263.75097593 182.314286789C263.75097593 182.314286789 261.82980162 178.55141505 261.82980162 178.55141505C261.82980162 178.55141505 260.017609085 175.417276485 260.017609085 175.417276485C260.017609085 175.417276485 259.247925868 172.575861205 259.247925868 172.575861205C259.247925868 172.575861205 258.402220211 170.534153011 258.402220211 170.534153011C258.402220211 170.534153011 257.696523874 168.538194696 257.696523874 168.538194696C257.696523874 168.538194696 257.494494794 165.661671818 257.494494794 165.661671818C257.494494794 165.661671818 257.163463212 163.750341361 257.163463212 163.750341361C257.163463212 163.750341361 256.99044232 161.897376274 256.99044232 161.897376274C256.99044232 161.897376274 257.395614903 159.09762289 257.395614903 159.09762289C257.395614903 159.09762289 257.617809595 157.373443664 257.617809595 157.373443664C257.617809595 157.373443664 257.79123486 156.537121152 257.79123486 156.537121152C257.79123486 156.537121152 258.006544477 155.718123155 258.006544477 155.718123155C258.006544477 155.718123155 258.263857588 154.916471845 258.263857588 154.916471845C258.263857588 154.916471845 259.018484086 153.107787261 259.018484086 153.107787261C259.018484086 153.107787261 259.018484086 153.107787261 259.018484086 153.107787261"
           style="fill:none;stroke:#000000;stroke-width:1.3744;stroke-linecap:square;stroke-linejoin:round;stroke-miterlimit:4;stroke-dasharray:none"
           id="path4559" />
      </g>
    </g>
  </g>
</svg>
