<?xml version="1.0" encoding="UTF-8" standalone="no"?>
<!-- Created with matplotlib (http://matplotlib.org/) -->

<svg
   xmlns:dc="http://purl.org/dc/elements/1.1/"
   xmlns:cc="http://creativecommons.org/ns#"
   xmlns:rdf="http://www.w3.org/1999/02/22-rdf-syntax-ns#"
   xmlns:svg="http://www.w3.org/2000/svg"
   xmlns="http://www.w3.org/2000/svg"
   xmlns:sodipodi="http://sodipodi.sourceforge.net/DTD/sodipodi-0.dtd"
   xmlns:inkscape="http://www.inkscape.org/namespaces/inkscape"
   height="210mm"
   version="1.1"
   viewBox="0 0 841.88976 595.27559"
   width="297mm"
   id="svg2"
   inkscape:version="0.91 r13725"
   sodipodi:docname="curveBad.svg">
  <sodipodi:namedview
     units="mm"
     pagecolor="#ffffff"
     bordercolor="#666666"
     borderopacity="1"
     objecttolerance="10"
     gridtolerance="10"
     guidetolerance="10"
     inkscape:pageopacity="0"
     inkscape:pageshadow="2"
     inkscape:window-width="1680"
     inkscape:window-height="1006"
     id="namedview24"
     showgrid="false"
     inkscape:zoom="0.8934238"
     inkscape:cx="597.36606"
     inkscape:cy="363.80884"
     inkscape:window-x="0"
     inkscape:window-y="0"
     inkscape:window-maximized="0"
     inkscape:current-layer="svg2" />
  <metadata
     id="metadata26">
    <rdf:RDF>
      <cc:Work
         rdf:about="">
        <dc:format>image/svg+xml</dc:format>
        <dc:type
           rdf:resource="http://purl.org/dc/dcmitype/StillImage" />
        <dc:title />
      </cc:Work>
    </rdf:RDF>
  </metadata>
  <defs
     id="defs4"
     style="stroke-linecap:butt;stroke-linejoin:round">
    <style
       id="style6"
       type="text/css">
*{stroke-linecap:butt;stroke-linejoin:round;}
  </style>
  </defs>
  <defs
     id="defs19">
    <clipPath
       id="p94f9811776"
       style="stroke-linecap:butt;stroke-linejoin:round">
      <rect
         id="rect22"
         y="0"
         x="0"
         width="1008"
         height="180"
         style="stroke-linecap:butt;stroke-linejoin:round" />
    </clipPath>
  </defs>
  <path
     id="path3444"
     d="M 314.93118,319.72884 C 274.31381,279.27928 262.65697,218.0612 285.56658,165.51515 308.47619,112.9691 361.26395,79.848294 418.54355,82.080934 c 57.2796,2.23265 107.32915,39.361856 126.07918,93.531716 18.75003,54.16986 2.36348,114.29486 -41.27916,151.46014"
     style="fill:none;stroke:#000000;stroke-width:1.03118241;stroke-linecap:butt;stroke-linejoin:round;stroke-opacity:0.28193831" />
  <g
     style="stroke-linecap:butt;stroke-linejoin:round"
     transform="matrix(0.84714099,0,0,0.36735965,11.183826,531.48767)"
     id="figure_1">
    <g
       style="stroke-linecap:butt;stroke-linejoin:round"
       id="patch_1" />
    <g
       style="stroke-linecap:butt;stroke-linejoin:round"
       id="axes_1">
      <g
         style="stroke-linecap:butt;stroke-linejoin:round"
         id="line2d_1" />
      <g
         style="stroke-linecap:butt;stroke-linejoin:round"
         id="line2d_2">
        <g
           style="stroke-linecap:butt;stroke-linejoin:round"
           id="g4246">
          <path
             id="path17"
             style="fill:none;stroke:#000000;stroke-width:1.5;stroke-linecap:square;stroke-linejoin:round"
             d="m 316.95408,-83.152216 2.24731,0 0,0.159341 2.3844,0 0,0.51678 2.52984,0 0,0.937204 2.68415,0 0,1.427037 2.84788,0 0,1.992385 3.02159,0 0,2.638611 3.2059,0 0,3.369763 3.40145,0 0,4.187825 3.60893,0 0,5.091728 3.82906,0 0,6.076124 4.06263,0 0,7.129878 4.31044,0 0,8.23425 4.57336,0 0,9.36082 4.85232,0 0,10.46919 5.14831,0 0,11.504621 5.46233,0 0,12.3958532 5.79553,0 0,13.0535118 6.14903,0 0,13.36971 6.52412,0 0,13.21966 6.92206,0 0,12.46652 7.34429,0 0,10.97075 7.79227,0 0,8.60559 8.26759,0 0,5.28024 8.77188,0 0,0.97162 9.30694,0 0,-4.23554 9.87464,0 0,-10.10283 10.47697,0 0,-16.19331 11.11603,0 0,-21.83947 11.79408,0 0,-26.1432958 12.5135,0 0,-28.0340402 13.27677,0 0,-26.413147 14.08663,0 0,-20.410588 14.94588,0 0,-9.755033 15.85753,0 0,4.786743 16.8248,0 0,21.022587 17.85106,0 0,35.217998 18.93994,0 0,42.546286 20.09522,0 0,38.38405 21.32097,0 0,20.49748 22.6215,0 0,-8.38336 24.00134,0 0,-38.92708 25.46537,0 0,-56.535768 27.01868,0 0,-47.41288 28.66675,0 0,-8.754873 30.41534,0 0,42.289158 32.2706,0 0,70.896153 34.23902,0 0,46.24756 36.32751,0 0,-24.4766 38.54339,0 0,-81.523037 m -916.36364,25.6471052 8.525925,-19.1954552 5.683949,-12.266074 4.262963,-8.702075 4.262962,-8.13968 2.841975,-5.057354 2.841975,-4.725056 2.841975,-4.363331 2.841975,-3.974435 2.841975,-3.560788 2.841975,-3.124967 2.841975,-2.669685 2.841975,-2.197778 2.841974,-1.712185 1.420988,-0.670543 1.420987,-0.545386 1.420988,-0.41938 1.420987,-0.292721 1.420985,-0.165605 1.42099,-0.03823 1.42099,0.0892 1.42099,0.216494 1.42098,0.34345 1.42099,0.469872 1.42099,0.595562 2.841972,1.564288 2.84198,2.053401 2.84197,2.529727 2.84198,2.990299 2.84197,3.432249 2.84198,3.852825 2.84197,4.249409 2.84198,4.619528 2.84197,4.960881 4.26296,8.013243 4.26297,8.599117 4.26296,9.064579 5.68395,12.590061 17.05185,38.218818 4.26296,8.95263 4.26296,8.45434 4.26296,7.83769 2.84198,4.82793 2.84197,4.47481 2.84198,4.09381 2.84197,3.68733 2.84198,3.25789 2.84197,2.80814 2.84198,2.34092 2.84197,1.85913 2.84198,1.36574 1.42099,0.49507 1.42098,0.36879 1.42099,0.24192 1.42099,0.11467 1.42099,-0.0127 1.42098,-0.14015 1.42099,-0.26733 1.42099,-0.39409 1.42099,-0.52025 1.42098,-0.64559 2.84198,-1.66298 2.84197,-2.14979 2.84198,-2.62319 2.84197,-3.08027 2.84198,-3.51816 2.84197,-3.93415 2.84198,-4.32562 2.84197,-4.69017 2.84198,-5.02551 4.26296,-8.09804 4.26296,-8.6683 5.68395,-12.23406 7.10494,-15.9489328 11.3679,-25.5706042 5.68395,-12.133467 4.26296,-8.563723 4.26296,-7.970095 2.84198,-4.928103 2.84197,-4.583774 2.84198,-4.210901 2.84197,-3.811806 2.84198,-3.388971 2.84197,-2.945033 2.84198,-2.482755 2.84197,-2.005016 2.84198,-1.51479 1.42099,-0.570492 1.42098,-0.444639 1.42099,-0.318096 1.42099,-0.191056 1.42099,-0.06372 0,0"
             inkscape:connector-curvature="0" />
        </g>
      </g>
    </g>
  </g>
  <g
     style="stroke-linecap:butt;stroke-linejoin:round"
     id="g7315">
    <g
       style="stroke-linecap:butt;stroke-linejoin:round"
       id="g4282" />
    <g
       style="stroke-linecap:butt;stroke-linejoin:round"
       id="g4284">
      <g
         style="stroke-linecap:butt;stroke-linejoin:round"
         id="g4286" />
      <g
         style="stroke-linecap:butt;stroke-linejoin:round"
         id="g4288">
        <g
           style="stroke-linecap:butt;stroke-linejoin:round"
           id="g4290">
          <path
             id="path4292"
             style="fill:none;stroke:#000000;stroke-width:1.5;stroke-linecap:square;stroke-linejoin:round"
             d="M282.918285202 113.089365908C282.918285202 113.089365908 283.966542256 111.833165952 283.966542256 111.833165952C283.966542256 111.833165952 284.011482794 111.870667335 284.011482794 111.870667335C284.011482794 111.870667335 285.866861703 109.698178704 285.866861703 109.698178704C285.866861703 109.698178704 286.007967066 109.825166702 286.007967066 109.825166702C286.007967066 109.825166702 287.240036255 108.456127334 287.240036255 108.456127334C287.240036255 108.456127334 287.495937237 108.686425836 287.495937237 108.686425836C287.495937237 108.686425836 288.80315766 107.233880608 288.80315766 107.233880608C288.80315766 107.233880608 289.1928062 107.584545441 289.1928062 107.584545441C289.1928062 107.584545441 291.343178212 105.28074822 291.343178212 105.28074822C291.343178212 105.28074822 291.868573433 105.790266283 291.868573433 105.790266283C291.868573433 105.790266283 293.400037879 104.211079677 293.400037879 104.211079677C293.400037879 104.211079677 294.095843966 104.885858883 294.095843966 104.885858883C294.095843966 104.885858883 296.448245081 102.506360282 296.448245081 102.506360282C296.448245081 102.506360282 297.304221571 103.400544075 297.304221571 103.400544075C297.304221571 103.400544075 299.093082547 101.688118786 299.093082547 101.688118786C299.093082547 101.688118786 300.156860547 102.799379501 300.156860547 102.799379501C300.156860547 102.799379501 302.729024592 100.375808245 302.729024592 100.375808245C302.729024592 100.375808245 303.97143531 101.773941087 303.97143531 101.773941087C303.97143531 101.773941087 306.055256622 99.9222129417 306.055256622 99.9222129417C306.055256622 99.9222129417 307.537865588 101.590650163 307.537865588 101.590650163C307.537865588 101.590650163 310.342465617 99.1611480858 310.342465617 99.1611480858C310.342465617 99.1611480858 312.00857988 101.181954394 312.00857988 101.181954394C312.00857988 101.181954394 314.429883529 99.185638108 314.429883529 99.185638108C314.429883529 99.185638108 316.354068118 101.519454247 316.354068118 101.519454247C316.354068118 101.519454247 319.399520287 99.1273201466 319.399520287 99.1273201466C319.399520287 99.1273201466 321.487481002 101.859418154 321.487481002 101.859418154C321.487481002 101.859418154 324.64255005 99.4856282075 324.64255005 99.4856282075C324.64255005 99.4856282075 326.863426698 102.625286034 326.863426698 102.625286034C326.863426698 102.625286034 329.923409527 100.460768502 329.923409527 100.460768502C329.923409527 100.460768502 332.363936838 103.910946918 332.363936838 103.910946918C332.363936838 103.910946918 335.774212144 101.644967811 335.774212144 101.644967811C335.774212144 101.644967811 338.264976087 105.456830945 338.264976087 105.456830945C338.264976087 105.456830945 341.799289075 103.245867956 341.799289075 103.245867956C341.799289075 103.245867956 344.272481086 107.353907 344.272481086 107.353907C344.272481086 107.353907 347.941022795 105.209184773 347.941022795 105.209184773C347.941022795 105.209184773 350.317297873 109.507252013 350.317297873 109.507252013C350.317297873 109.507252013 354.13433736 107.439169038 354.13433736 107.439169038C354.13433736 107.439169038 356.325568191 111.772781896 356.325568191 111.772781896C356.325568191 111.772781896 360.311189108 109.790922123 360.311189108 109.790922123C360.311189108 109.790922123 362.225235149 113.951174333 362.225235149 113.951174333C362.225235149 113.951174333 366.407455814 112.064486997 366.407455814 112.064486997C366.407455814 112.064486997 367.9552575 115.785385274 367.9552575 115.785385274C367.9552575 115.785385274 372.372172183 114.002758593 372.372172183 114.002758593C372.372172183 114.002758593 373.477256501 116.964476349 373.477256501 116.964476349C373.477256501 116.964476349 378.179145768 115.295712026 378.179145768 115.295712026C378.179145768 115.295712026 378.789210182 117.136910875 378.789210182 117.136910875C378.789210182 117.136910875 383.840131745 115.594236977 383.840131745 115.594236977C383.840131745 115.594236977 383.939688091 115.936984489 383.939688091 115.936984489C383.939688091 115.936984489 388.325102759 114.799882825 388.325102759 114.799882825C388.325102759 114.799882825 388.004108016 113.277478786 388.004108016 113.277478786C388.004108016 113.277478786 394.004102309 112.078644202 394.004102309 112.078644202C394.004102309 112.078644202 393.375595483 108.421096157 393.375595483 108.421096157C393.375595483 108.421096157 399.997193262 107.443681091 399.997193262 107.443681091C399.997193262 107.443681091 399.211799201 101.54733859 399.211799201 101.54733859C399.211799201 101.54733859 405.855039243 100.979645418 405.855039243 100.979645418C405.855039243 100.979645418 405.401777192 92.9699968235 405.401777192 92.9699968235C405.401777192 92.9699968235 413.162581006 92.7171626621 413.162581006 92.7171626621C413.162581006 92.7171626621 413.352999904 83.115635962 413.352999904 83.115635962C413.352999904 83.115635962 422.412084615 83.445238436 422.412084615 83.445238436C422.412084615 83.445238436 423.009926055 73.1646505673 423.009926055 73.1646505673C423.009926055 73.1646505673 433.31845988 74.2182109267 433.31845988 74.2182109267C433.31845988 74.2182109267 434.619000505 64.6032211606 434.619000505 64.6032211606C434.619000505 64.6032211606 446.127387205 66.616433732 446.127387205 66.616433732C446.127387205 66.616433732 447.692806997 59.28408975 447.692806997 59.28408975C447.692806997 59.28408975 460.159426964 62.4558189618 460.159426964 62.4558189618C460.159426964 62.4558189618 461.169402365 59.0176955404 461.169402365 59.0176955404C461.169402365 59.0176955404 474.214972639 63.4636336074 474.214972639 63.4636336074C474.214972639 63.4636336074 473.594556253 65.1088991743 473.594556253 65.1088991743C473.594556253 65.1088991743 487.669287636 71.3237575828 487.669287636 71.3237575828C487.669287636 71.3237575828 484.157333067 78.2013942745 484.157333067 78.2013942745C484.157333067 78.2013942745 496.834536124 85.2473006121 496.834536124 85.2473006121C496.834536124 85.2473006121 490.116032647 96.3029038443 490.116032647 96.3029038443C490.116032647 96.3029038443 502.155062991 104.587424061 502.155062991 104.587424061C502.155062991 104.587424061 492.613563433 116.965747234 492.613563433 116.965747234C492.613563433 116.965747234 503.078981775 125.846342271 503.078981775 125.846342271C503.078981775 125.846342271 493.289780308 135.994270777 493.289780308 135.994270777C493.289780308 135.994270777 502.275334539 145.45088671 502.275334539 145.45088671C502.275334539 145.45088671 496.47849795 150.256128915 496.47849795 150.256128915C496.47849795 150.256128915 504.36068778 160.751357093 504.36068778 160.751357093C504.36068778 160.751357093 506.936619227 159.063730754 506.936619227 159.063730754C506.936619227 159.063730754 514.118010906 171.595444018 514.118010906 171.595444018C514.118010906 171.595444018 526.888056804 165.161269504 526.888056804 165.161269504C526.888056804 165.161269504 533.236215769 180.543717792 533.236215769 180.543717792C533.236215769 180.543717792 552.987876859 174.127353705 552.987876859 174.127353705C552.987876859 174.127353705 558.188245639 194.076307193 558.188245639 194.076307193C558.188245639 194.076307193 575.258554487 190.620762045 575.258554487 190.620762045C575.258554487 190.620762045 577.99958873 215.209727054 577.99958873 215.209727054C577.99958873 215.209727054 581.211736804 215.052324465 581.211736804 215.052324465C581.211736804 215.052324465 579.942701814 242.534437181 579.942701814 242.534437181C579.942701814 242.534437181 564.553660653 240.413854039 564.553660653 240.413854039C564.553660653 240.413854039 559.239385178 265.310537699 559.239385178 265.310537699C559.239385178 265.310537699 534.243395824 258.000610352 534.243395824 258.000610352C534.243395824 258.000610352 525.765794601 278.928426809 525.765794601 278.928426809C525.765794601 278.928426809 510.613999129 271.245121117 510.613999129 271.245121117C510.613999129 271.245121117 499.337628553 288.836035533 499.337628553 288.836035533C499.337628553 288.836035533 506.461221664 294.32201283 506.461221664 294.32201283C506.461221664 294.32201283 489.738318953 311.701936208 489.738318953 311.701936208C489.738318953 311.701936208 509.586582209 334.125980533 509.586582209 334.125980533M314.932526506 319.727538667C314.932526506 319.727538667 305.388880049 319.94491208 305.388880049 319.94491208C305.388880049 319.94491208 299.271699804 319.86673409 299.271699804 319.86673409C299.271699804 319.86673409 294.532835367 319.191299668 294.532835367 319.191299668C294.532835367 319.191299668 289.846979301 318.168609749 289.846979301 318.168609749C289.846979301 318.168609749 287.113831265 317.656615943 287.113831265 317.656615943C287.113831265 317.656615943 284.477563492 317.07036419 284.477563492 317.07036419C284.477563492 317.07036419 281.477224902 315.669916542 281.477224902 315.669916542C281.477224902 315.669916542 279.090088484 314.82490696 279.090088484 314.82490696C279.090088484 314.82490696 276.293504629 313.081238334 276.293504629 313.081238334C276.293504629 313.081238334 274.201260845 311.97615297 274.201260845 311.97615297C274.201260845 311.97615297 272.249061694 310.779647952 272.249061694 310.779647952C272.249061694 310.779647952 269.913720345 308.5476946 269.913720345 308.5476946C269.913720345 308.5476946 268.309464306 307.097549688 268.309464306 307.097549688C268.309464306 307.097549688 267.565772103 306.337392091 267.565772103 306.337392091C267.565772103 306.337392091 266.315501758 304.582031428 266.315501758 304.582031428C266.315501758 304.582031428 265.681657918 303.750032883 265.681657918 303.750032883C265.681657918 303.750032883 265.088573787 302.895598137 265.088573787 302.895598137C265.088573787 302.895598137 264.536396778 302.018646873 264.536396778 302.018646873C264.536396778 302.018646873 264.025207781 301.119128747 264.025207781 301.119128747C264.025207781 301.119128747 263.041311851 299.199298439 263.041311851 299.199298439C263.041311851 299.199298439 262.647697684 298.239276053 262.647697684 298.239276053C262.647697684 298.239276053 262.295753688 297.258313291 262.295753688 297.258313291C262.295753688 297.258313291 261.985298065 296.256485251 261.985298065 296.256485251C261.985298065 296.256485251 261.716093842 295.233919212 261.716093842 295.233919212C261.716093842 295.233919212 260.878732201 292.136936279 260.878732201 292.136936279C260.878732201 292.136936279 260.705004404 289.94153582 260.705004404 289.94153582C260.705004404 289.94153582 260.296875303 286.74360334 260.296875303 286.74360334C260.296875303 286.74360334 260.522980668 284.411976531 260.522980668 284.411976531C260.522980668 284.411976531 260.899157881 282.018426543 260.899157881 282.018426543C260.899157881 282.018426543 261.147270825 278.740641656 261.147270825 278.740641656C261.147270825 278.740641656 261.893447268 276.258537827 261.893447268 276.258537827C261.893447268 276.258537827 262.531697798 273.022411805 262.531697798 273.022411805C262.531697798 273.022411805 263.61749108 270.488066768 263.61749108 270.488066768C263.61749108 270.488066768 265.289642089 266.075087652 265.289642089 266.075087652C265.289642089 266.075087652 267.466319588 262.218622532 267.466319588 262.218622532C267.466319588 262.218622532 269.771450351 257.985291401 269.771450351 257.985291401C269.771450351 257.985291401 273.240647192 252.698371206 273.240647192 252.698371206C273.240647192 252.698371206 284.924858967 238.312495154 284.924858967 238.312495154C284.924858967 238.312495154 287.84561187 235.277858995 287.84561187 235.277858995C287.84561187 235.277858995 290.639566476 231.890992366 290.639566476 231.890992366C290.639566476 231.890992366 293.318909764 229.22335333 293.318909764 229.22335333C293.318909764 229.22335333 294.967265667 227.053286029 294.967265667 227.053286029C294.967265667 227.053286029 296.539028999 225.72101717 296.539028999 225.72101717C296.539028999 225.72101717 297.996929964 223.619351727 297.996929964 223.619351727C297.996929964 223.619351727 299.305551318 221.520980775 299.305551318 221.520980775C299.305551318 221.520980775 300.518151126 220.409513311 300.518151126 220.409513311C300.518151126 220.409513311 301.580734222 218.356231117 301.580734222 218.356231117C301.580734222 218.356231117 302.4564856 217.356761952 302.4564856 217.356761952C302.4564856 217.356761952 303.24649969 215.326183933 303.24649969 215.326183933C303.24649969 215.326183933 303.855520013 213.286136951 303.855520013 213.286136951C303.855520013 213.286136951 304.032865836 213.371307325 304.032865836 213.371307325C304.032865836 213.371307325 304.260258728 212.353034097 304.260258728 212.353034097C304.260258728 212.353034097 304.441234536 211.330588189 304.441234536 211.330588189C304.441234536 211.330588189 304.57565358 210.303964375 304.57565358 210.303964375C304.57565358 210.303964375 304.663471955 209.273158715 304.663471955 209.273158715C304.663471955 209.273158715 304.603483919 209.355120157 304.603483919 209.355120157C304.603483919 209.355120157 304.636981536 208.316481093 304.636981536 208.316481093C304.636981536 208.316481093 304.624289619 207.271949862 304.624289619 207.271949862C304.624289619 207.271949862 304.565626801 206.221554351 304.565626801 206.221554351C304.565626801 206.221554351 304.461290957 205.165339899 304.461290957 205.165339899C304.461290957 205.165339899 304.018216063 204.109488987 304.018216063 204.109488987C304.018216063 204.109488987 303.577744681 201.939102469 303.577744681 201.939102469C303.577744681 201.939102469 302.798333086 200.741004382 302.798333086 200.741004382C302.798333086 200.741004382 302.104969533 198.487007041 302.104969533 198.487007041C302.104969533 198.487007041 301.254024567 196.200729257 301.254024567 196.200729257C301.254024567 196.200729257 300.115687313 194.746482366 300.115687313 194.746482366C300.115687313 194.746482366 299.063522286 192.359277328 299.063522286 192.359277328C299.063522286 192.359277328 297.701857505 190.667982504 297.701857505 190.667982504C297.701857505 190.667982504 296.493611788 188.172172468 296.493611788 188.172172468C296.493611788 188.172172468 294.325838738 184.918517926 294.325838738 184.918517926C294.325838738 184.918517926 292.262438867 180.979782045 292.262438867 180.979782045C292.262438867 180.979782045 289.262342959 175.940566483 289.262342959 175.940566483C289.262342959 175.940566483 285.610872834 169.137527403 285.610872834 169.137527403C285.610872834 169.137527403 280.387550901 157.69672555 280.387550901 157.69672555C280.387550901 157.69672555 278.39747839 151.710703555 278.39747839 151.710703555C278.39747839 151.710703555 277.320857808 147.023485886 277.320857808 147.023485886C277.320857808 147.023485886 276.266866536 142.889142364 276.266866536 142.889142364C276.266866536 142.889142364 276.120576585 139.560212925 276.120576585 139.560212925C276.120576585 139.560212925 275.75239508 136.918137819 275.75239508 136.918137819C275.75239508 136.918137819 275.985551223 133.59815273 275.985551223 133.59815273C275.985551223 133.59815273 275.954506685 131.100030274 275.954506685 131.100030274C275.954506685 131.100030274 276.053173273 128.687350111 276.053173273 128.687350111C276.053173273 128.687350111 276.907834094 125.541249915 276.907834094 125.541249915C276.907834094 125.541249915 277.368377352 123.327507293 277.368377352 123.327507293C277.368377352 123.327507293 278.623916733 120.344999001 278.623916733 120.344999001C278.623916733 120.344999001 279.44876588 118.367564807 279.44876588 118.367564807C279.44876588 118.367564807 279.915516738 117.420828542 279.915516738 117.420828542C279.915516738 117.420828542 280.418844292 116.502366249 280.418844292 116.502366249C280.418844292 116.502366249 281.664513102 114.73794608 281.664513102 114.73794608C281.664513102 114.73794608 282.273448011 113.898676364 282.273448011 113.898676364C282.273448011 113.898676364 282.918296766 113.089375558 282.918296766 113.089375558C282.918296766 113.089375558 282.918296766 113.089375558 282.918296766 113.089375558" />
        </g>
      </g>
    </g>
  </g>
</svg>
